<svg width="175" height="175" viewBox="0 0 175 175" fill="none" xmlns="http://www.w3.org/2000/svg">
<path d="M132.251 38.6655L128.181 128.2C141.649 128.2 144.46 131.714 144.46 148.549V168.898H160.739L156.67 38.6655H132.251Z" fill="#88D8AD"/>
<path d="M79.3491 54.9446C95.6231 59.0144 128.181 79.3632 128.181 128.2H30.5068C30.5068 79.3632 63.065 59.0144 79.3491 54.9446Z" fill="#88D8AD"/>
<path fill-rule="evenodd" clip-rule="evenodd" d="M122.107 27.6105C121.937 31.8974 123.298 36.1479 126.08 40.3581L123.926 87.7426C121.031 83.1764 117.685 79.2485 114.091 75.7497C109.028 70.8198 103.518 66.7886 98.5745 63.1724L97.4148 62.3233C92.0296 58.3751 87.4827 54.9183 83.9449 50.9051C82.7369 49.5347 81.0509 48.8355 79.3572 48.8372C77.6636 48.8355 75.9776 49.5347 74.7696 50.9051C71.2318 54.9183 66.6848 58.3751 61.2996 62.3233L60.1401 63.1722C55.197 66.7885 49.6867 70.8197 44.6234 75.7497C34.1609 85.9367 25.792 99.7611 24.5718 122.385C19.958 122.93 15.6313 124.414 12.5662 128.245C10.488 130.843 9.44927 133.976 8.88132 137.208C8.31414 140.435 8.13953 144.234 8.13953 148.546V162.791H6.10465C2.73314 162.791 0 165.524 0 168.895C0 172.267 2.73314 175 6.10465 175H128.158L128.198 175H160.756L160.795 175H168.895C172.267 175 175 172.267 175 168.895C175 165.524 172.267 162.791 168.895 162.791H166.673L162.848 40.3975C165.647 36.1744 167.017 31.9108 166.847 27.6106C166.652 22.7052 164.487 18.7092 162.091 15.603C159.831 12.6732 157.017 10.1053 154.779 8.06411L154.52 7.82797C151.977 5.50652 150.41 4.00925 149.569 2.7379C148.439 1.02831 146.526 -4.65732e-05 144.477 1.58421e-09C142.427 4.65763e-05 140.514 1.02849 139.384 2.73815C138.544 4.00936 136.976 5.50658 134.433 7.82802L134.174 8.06439C131.937 10.1056 129.122 12.6733 126.863 15.603C124.467 18.7092 122.302 22.7052 122.107 27.6105ZM30.5233 134.302C30.5133 134.302 30.5034 134.302 30.4935 134.302C23.7193 134.305 22.5068 135.364 22.1001 135.872C21.792 136.257 21.2863 137.159 20.9063 139.321C20.5256 141.488 20.3488 144.441 20.3488 148.546V162.791H138.372V148.546C138.372 144.441 138.195 141.488 137.815 139.321C137.435 137.159 136.929 136.257 136.621 135.872C136.215 135.365 135.005 134.308 128.254 134.302L30.5233 134.302ZM36.8191 122.093C38.0386 103.231 44.9402 92.4819 53.1407 84.4974C57.5631 80.1915 62.4136 76.6401 67.4755 72.9339L68.5186 72.1698C72.1327 69.5201 75.8914 66.7297 79.3572 63.5845C82.823 66.7297 86.5818 69.5201 90.1958 72.1698L91.239 72.9339C96.3008 76.64 101.151 80.1915 105.574 84.4974C113.774 92.4819 120.676 103.231 121.895 122.093H36.8191ZM150.769 44.7674H138.101L134.571 122.438C139.026 123.022 143.183 124.531 146.155 128.245C148.233 130.843 149.272 133.976 149.84 137.208C150.407 140.435 150.581 144.234 150.581 148.546V162.791H154.458L150.769 44.7674ZM142.88 16.6485C143.387 16.1858 143.926 15.6942 144.477 15.178C145.027 15.6942 145.566 16.1857 146.073 16.6484L146.289 16.845C148.749 19.0912 150.847 21.0165 152.423 23.0598C153.951 25.0407 154.589 26.6407 154.647 28.0943C154.687 29.1092 154.464 30.5626 153.344 32.5581H135.61C134.489 30.5627 134.267 29.1092 134.307 28.0944C134.365 26.6407 135.002 25.0407 136.53 23.0598C138.106 21.0165 140.204 19.0912 142.665 16.8449L142.88 16.6485Z" fill="#384250"/>
</svg>
